<svg xmlns="http://www.w3.org/2000/svg" viewBox="0 0 512 512">
  <defs>
    <linearGradient id="grad1" x1="0%" y1="0%" x2="100%" y2="100%">
      <stop offset="0%" style="stop-color:#4F46E5;stop-opacity:1" />
      <stop offset="100%" style="stop-color:#7C3AED;stop-opacity:1" />
    </linearGradient>
  </defs>
  <!-- 背景圆 -->
  <circle cx="256" cy="256" r="240" fill="url(#grad1)" />
  <!-- 书本形状 -->
  <path d="M140 160 L140 352 L256 400 L372 352 L372 160 Q372 120 332 120 L180 120 Q140 120 140 160 Z" fill="white" opacity="0.95" />
  <!-- L 字母 -->
  <path d="M180 200 L180 340 L280 340 L280 320 L200 320 L200 200 Z" fill="#4F46E5" />
  <!-- AI 眼睛 -->
  <circle cx="320" cy="240" r="20" fill="#4F46E5" />
  <circle cx="320" cy="240" r="8" fill="white" />
  <!-- 神经网络节点 -->
  <circle cx="320" cy="300" r="12" fill="#7C3AED" />
  <circle cx="280" cy="270" r="8" fill="#4F46E5" />
  <circle cx="360" cy="270" r="8" fill="#4F46E5" />
  <line x1="320" y1="300" x2="280" y2="270" stroke="#7C3AED" stroke-width="3" opacity="0.6" />
  <line x1="320" y1="300" x2="360" y2="270" stroke="#7C3AED" stroke-width="3" opacity="0.6" />
</svg>